Coordinates
version=1
nRows=17
nColumns=36
inDegrees=yes

Units are S.I. units (second, meters, Newtons, ...)
If the header above contains a line with 'inDegrees', this indicates whether rotational values are in degrees (yes) or radians (no).

endheader
time	pelvis_tilt	pelvis_list	pelvis_rotation	pelvis_tx	pelvis_ty	pelvis_tz	hip_flexion_r	hip_adduction_r	hip_rotation_r	knee_angle_r	knee_angle_r_beta	ankle_angle_r	subtalar_angle_r	mtp_angle_r	hip_flexion_l	hip_adduction_l	hip_rotation_l	knee_angle_l	knee_angle_l_beta	ankle_angle_l	subtalar_angle_l	mtp_angle_l	lumbar_extension	lumbar_bending	lumbar_rotation	arm_flex_r	arm_add_r	arm_rot_r	elbow_flex_r	pro_sup_r	arm_flex_l	arm_add_l	arm_rot_l	elbow_flex_l	pro_sup_l
      3.33333330	     -3.71416841	      9.86054870	      3.60578622	      0.96270189	      0.91875627	     -0.17512981	     11.31870740	     -3.21587568	     -3.05410104	     24.87682824	      0.43418256	     21.97815341	      2.87471923	     -7.49999987	     53.70640980	      0.13909933	     -1.89013538	     24.75227618	      0.43200872	     15.45196926	     -4.15616852	     -7.49999987	    -16.44806766	      0.06496467	     -6.58413311	     44.87425089	     -4.89413372	     66.99867627	    131.78469345	    104.22611876	     37.17472621	     -2.82150431	     59.28723255	    125.78230007	    108.88910646
      3.35000000	     -3.27960899	      9.81980939	      3.31912012	      0.96252624	      0.91576072	     -0.17530494	     11.16002463	     -3.07791112	     -2.84108401	     25.65148647	      0.44770290	     22.58154954	      3.33088704	     -7.49999987	     53.03046926	      0.04615148	     -1.71634581	     24.37064713	      0.42534803	     14.65678945	     -4.92587239	     -7.49999987	    -16.66052368	      0.24586303	     -6.26044910	     44.75958914	     -5.39120511	     67.60998849	    131.62578144	    104.15043397	     36.63973829	     -3.01837756	     57.66800355	    125.43874243	    108.15270416
      3.36666670	     -3.21343056	      9.66555224	      3.17279283	      0.96298923	      0.91170830	     -0.17515966	     11.55689813	     -2.74910728	     -2.54177002	     26.63493064	      0.46486724	     22.82498719	      3.25802102	     -7.49999987	     52.63539728	     -0.02159265	     -1.43142381	     23.97006369	      0.41835653	     14.01847216	     -5.17274278	     -7.49999987	    -16.41828992	      0.52001722	     -5.74328451	     44.33159289	     -5.46787895	     67.72765811	    131.51369741	    104.23181800	     36.37708600	     -2.43653164	     58.37649768	    125.65249659	    108.55600031
      3.38333330	     -2.93934383	      9.44207242	      2.98547680	      0.96283960	      0.90829240	     -0.17559735	     11.92685708	     -2.35726831	     -2.15266735	     28.00079292	      0.48870603	     23.29832020	      3.32872881	     -7.49999987	     52.35214745	     -0.24225803	     -0.87205054	     24.00472522	      0.41896149	     13.28981425	     -5.72773780	     -7.49999987	    -16.56653619	      0.82914098	     -5.32948241	     43.85409340	     -5.99172373	     67.72167116	    131.31472832	    103.78888555	     36.40495262	     -2.11013833	     59.48600462	    126.24909366	    108.27678911
      3.40000000	     -2.71835657	      8.99915972	      2.69906787	      0.95759525	      0.90721969	     -0.17232528	     12.58129229	     -1.62926858	     -1.76399084	     29.43201531	      0.51368557	     23.71828602	      3.22538377	     -7.49999987	     52.23943801	     -0.80731741	     -0.71452595	     24.27848886	      0.42373957	     12.60105168	     -5.67433110	     -7.49999987	    -16.96198310	      1.28859988	     -4.78114560	     44.09046014	     -5.80815598	     67.71793166	    130.93141673	    103.82046331	     36.58604942	     -1.50962361	     60.16598851	    126.78879142	    108.41831108
      3.41666670	     -2.93578963	      8.45490751	      2.64997986	      0.96358960	      0.89654189	     -0.17605769	     13.65374134	     -0.90868248	     -1.62975301	     31.14071247	      0.54350796	     24.65610516	      3.56638028	     -7.49999987	     52.85099141	     -1.29803674	     -0.27062964	     24.82952891	      0.43335703	     12.04364419	     -6.08033059	     -7.49999987	    -16.57885211	      1.69282305	     -4.46463282	     43.97773852	     -5.69483305	     68.20744379	    131.73278871	    104.12905408	     36.87556780	     -0.69505921	     61.14855338	    127.22935320	    109.31810066
      3.43333330	     -3.18369208	      7.84670729	      2.87169229	      0.96798147	      0.88307952	     -0.17252236	     14.66314181	     -0.09712097	     -1.85098629	     32.94863798	      0.57506222	     26.24093784	      4.29900256	     -7.49999987	     53.86122936	     -1.82587786	      0.29184679	     25.83539401	      0.45091269	     11.93342333	     -6.34405434	     -7.49999987	    -15.71227477	      2.01628384	     -4.52969703	     43.75145873	     -5.62050388	     68.48627190	    132.70761164	    100.75952066	     37.03664179	      0.10579205	     61.48084593	    127.90577530	    106.52606896
      3.45000000	     -3.40403307	      7.34964575	      3.06563776	      0.96751593	      0.87966587	     -0.17271824	     15.55111917	      0.53890079	     -2.09743683	     34.49111428	      0.60198351	     27.27595264	      4.40801588	     -7.49999987	     54.76990548	     -2.14674509	      0.89262283	     26.83063877	      0.46828299	     11.97600152	     -6.69112130	     -7.49999987	    -15.16304836	      2.28109357	     -4.86649974	     43.62844664	     -5.61110065	     68.80536014	    132.85475691	    103.78829535	     36.57743529	      0.12528060	     61.26405915	    128.05619233	    110.03039281
      3.46666670	     -3.76874986	      6.80797473	      3.26314461	      0.96726897	      0.87607268	     -0.17366208	     16.55719662	      1.12830448	     -2.44456405	     35.90689186	      0.62669349	     28.20811781	      4.51318812	     -7.49999987	     55.73893962	     -2.43731708	      1.40304016	     27.59418121	      0.48160932	     11.83355051	     -7.19004869	     -7.49999987	    -14.66504602	      2.60813104	     -5.19211668	     43.39313426	     -5.75263190	     69.04499848	    132.99577870	    103.89545220	     35.92912135	     -0.09246995	     60.92601642	    127.23483117	    110.08899677
      3.48333330	     -4.24731342	      6.17364250	      3.43860098	      0.96690744	      0.86901195	     -0.17425773	     17.77757056	      1.78834275	     -2.80934071	     37.40537845	      0.65284701	     29.12611732	      4.70121503	     -7.49999987	     56.99043670	     -2.71605552	      2.07868945	     28.27591706	      0.49350785	     11.67041965	     -7.58984136	     -7.49999987	    -14.08438592	      3.05481426	     -5.58356654	     43.34864111	     -5.73513680	     68.92396653	    133.21196313	    104.13345939	     35.56044148	     -0.57979953	     59.47789147	    126.61374478	    109.62601057
      3.50000000	     -4.36108611	      5.86667324	      3.56428756	      0.97126018	      0.86606818	     -0.17048476	     18.19166926	      2.23125151	     -2.97341382	     38.37395488	      0.66975186	     30.10443543	      4.87991268	     -7.49999987	     57.45794631	     -2.90224405	      2.57586416	     28.78565951	      0.50240454	     11.52238394	     -8.02890837	     -7.49999987	    -13.76558901	      2.91958553	     -5.79273110	     42.73293455	     -5.67565825	     68.38888429	    133.33212935	    104.20671119	     35.09401023	     -1.55027829	     57.63173539	    125.62647056	    109.42142005
      3.51666670	     -4.45550669	      5.58109683	      3.56507888	      0.97074038	      0.86573294	     -0.17060686	     18.63034866	      2.67544252	     -2.84127046	     39.21228974	      0.68438356	     30.48754019	      4.40185923	     -7.49999987	     57.76204525	     -3.07173137	      2.78065891	     28.99648472	      0.50608413	     11.33785390	     -8.21302548	     -7.49999987	    -13.76911261	      3.09195727	     -5.53223221	     42.66875211	     -5.82380450	     69.12426049	    133.11719573	    104.59414785	     34.55557919	     -1.92580619	     57.88492394	    124.85484784	    109.48128949
      3.53333330	     -4.60050726	      5.27947430	      3.67376647	      0.97033843	      0.85898514	     -0.17103486	     19.06997137	      3.06620347	     -2.82722051	     39.84652259	      0.69545301	     30.78489809	      4.15084352	     -7.49999987	     58.13706972	     -3.20549799	      3.10685517	     28.97355298	      0.50568390	     11.01204699	     -8.62788168	     -7.49999987	    -13.51730199	      3.33081233	     -5.28188695	     41.88223980	     -6.23936022	     69.25356667	    132.69975409	    104.63702255	     33.92462677	     -2.05075771	     57.69517601	    124.51154227	    109.25244147
      3.55000000	     -4.37803741	      5.26306183	      3.48545183	      0.97004610	      0.85914062	     -0.17090091	     19.00763226	      3.25837493	     -2.39980486	     40.24021405	      0.70232423	     30.78970782	      3.56518072	     -7.49999987	     57.52722357	     -3.26279599	      3.16221243	     28.41669882	      0.49596496	     10.48836978	     -9.05844943	     -7.49999987	    -13.85922043	      3.29261738	     -4.92567798	     41.04954149	     -6.94673655	     69.07648340	    132.29800074	    103.78508411	     33.54134997	     -2.09313560	     57.79374450	    124.23396875	    108.49338553
      3.56666670	     -4.41009568	      4.88899839	      3.14326823	      0.97025436	      0.85157789	     -0.17094415	     19.74257785	      3.86254157	     -1.92671451	     41.57853098	      0.72568226	     31.02832270	      3.20833100	     -7.49999987	     57.52879637	     -3.77584325	      3.24075525	     28.22701798	      0.49265440	     10.24986950	     -8.70580898	     -7.49999987	    -13.66836486	      3.64702266	     -4.50730811	     40.34294683	     -7.24922143	     69.03551972	    131.97663272	    104.58898249	     33.24389936	     -1.56216219	     58.29281177	    124.66652097	    109.18700238
      3.58333330	     -4.13901384	      4.42777033	      2.91614810	      0.96925228	      0.85134839	     -0.16313178	     19.97349972	      4.71315413	     -1.53297060	     42.50401281	      0.74183497	     31.30923358	      2.99209964	     -7.49999987	     57.06141253	     -4.36816961	      3.40462810	     27.64619561	      0.48251714	      9.67901261	     -8.44451455	     -7.49999987	    -14.09236421	      3.86910200	     -4.09209257	     39.64770927	     -7.19155263	     69.15438790	    130.99687754	    104.59252641	     32.80004321	     -1.60190639	     59.02960140	    124.97739245	    109.21784307
      3.60000000	     -4.04572374	      4.02544993	      2.71116545	      0.96947349	      0.84402730	     -0.16314199	     20.63992265	      5.50826565	     -1.24987849	     43.78222220	      0.76414393	     31.40654356	      2.61719305	     -7.49999987	     56.91834936	     -5.00386570	      3.48438334	     27.25048648	      0.47561071	      9.19007953	     -8.35210879	     -7.49999987	    -14.24234735	      3.94720863	     -3.70569756	     39.44529788	     -6.90885700	     68.70157247	    130.71708295	    103.74008355	     33.57691345	     -0.99429972	     61.26825149	    125.59419325	    108.57605124
